<svg width="121" height="120" viewBox="0 0 121 120" fill="none" xmlns="http://www.w3.org/2000/svg">
<path d="M30.9703 39.606C31.1165 39.6622 31.1165 39.6622 31.2649 39.7184C32.7168 40.3334 33.6986 41.4416 34.6814 42.5752C34.8085 42.7194 34.9345 42.8636 35.0616 43.0079C35.5305 43.5423 35.9972 44.0789 36.4628 44.6165C36.916 45.1404 37.3715 45.6621 37.8303 46.1807C37.8809 46.238 37.9304 46.2952 37.9833 46.3535C38.7457 47.2114 39.4396 47.801 40.6418 47.9834C41.1287 48.0015 41.6123 47.9813 42.0993 47.9612C42.2533 47.9548 42.4074 47.9495 42.5626 47.9442C43.1215 47.9241 43.6816 47.9007 44.2405 47.8774C44.4722 47.8679 44.7038 47.8583 44.9355 47.8488C46.6876 47.7767 48.4386 47.7014 50.1896 47.624C51.3187 47.5752 52.4489 47.5253 53.578 47.4765C53.9705 47.4596 54.3618 47.4426 54.7532 47.4256C54.9916 47.415 55.23 47.4044 55.4684 47.3938C55.5764 47.3896 55.6843 47.3843 55.7957 47.38C55.8958 47.3758 55.9947 47.3705 56.0982 47.3663C56.2275 47.361 56.2275 47.361 56.3591 47.3557C56.6301 47.3461 56.9012 47.3461 57.1733 47.3472C57.1036 47.7544 56.9743 48.1245 56.8281 48.5105C55.9138 50.9484 55.6776 53.6271 56.3861 56.1488C56.4176 56.2612 56.4176 56.2612 56.4502 56.3768C57.5343 60.0682 60.0781 62.6726 63.5273 64.5528C66.3747 66.0671 69.4302 66.7787 72.6702 65.9388C76.1868 64.9324 78.4292 62.8307 80.1915 59.8508C80.5952 59.1679 81.0192 58.4966 81.4431 57.8254C82.0392 56.8816 82.6273 55.9346 83.2076 54.9823C83.8543 53.9198 84.5133 52.8646 85.1779 51.8127C85.6896 50.9993 86.1946 50.1817 86.6939 49.362C87.3405 48.3016 87.9984 47.2475 88.6619 46.1955C89.2692 45.2327 89.8652 44.2634 90.4556 43.291C90.7683 42.7767 91.0832 42.2645 91.4025 41.7534C91.4565 41.6664 91.5105 41.5794 91.5667 41.4904C91.6106 41.4278 91.6533 41.3663 91.6983 41.3027C91.7354 41.3027 91.7725 41.3027 91.8108 41.3027C91.8344 42.4564 91.759 43.5975 91.6769 44.748C91.6623 44.9538 91.6477 45.1595 91.6331 45.3642C91.6027 45.8042 91.5712 46.2433 91.5398 46.6833C91.4903 47.379 91.4419 48.0746 91.3924 48.7703C91.298 50.1213 91.2024 51.4723 91.1068 52.8233C90.9842 54.5444 90.8627 56.2644 90.7424 57.9855C90.6941 58.6769 90.6446 59.3673 90.5951 60.0587C90.5647 60.4881 90.5344 60.9187 90.504 61.3492C90.4905 61.5475 90.4759 61.7469 90.4624 61.9452C90.2914 63.8116 90.2915 63.8116 90.5692 65.6493C90.5928 65.7341 90.6165 65.82 90.6412 65.907C90.7199 66.1901 90.8009 66.4722 90.8819 66.7543C90.9392 66.9579 90.9966 67.1615 91.0528 67.3661C91.1765 67.8041 91.3002 68.2421 91.425 68.68C91.6241 69.382 91.822 70.0841 92.0188 70.7871C92.2269 71.5241 92.4338 72.2601 92.6418 72.9971C93.1142 74.6715 93.5831 76.3459 94.0476 78.0225C94.0791 78.136 94.1106 78.2484 94.1432 78.365C94.3006 78.9345 94.4592 79.5029 94.6166 80.0713C94.9304 81.2028 95.2453 82.3342 95.559 83.4647C95.5905 83.576 95.6209 83.6874 95.6524 83.8019C96.5071 86.8719 97.3651 89.9397 98.2243 93.0086C98.3525 93.4636 98.4796 93.9195 98.6067 94.3745C98.6539 94.5431 98.7012 94.7128 98.7484 94.8814C98.7709 94.9609 98.7922 95.0415 98.8159 95.1242C98.9542 95.6173 99.0936 96.1094 99.2365 96.6014C99.2691 96.717 99.3028 96.8326 99.3365 96.9513C99.395 97.155 99.4535 97.3596 99.5142 97.5632C99.539 97.6491 99.5637 97.735 99.5885 97.8241C99.6199 97.9333 99.6199 97.9333 99.6526 98.0447C99.6885 98.2843 99.6537 98.4444 99.5705 98.6724C99.4276 98.8379 99.4276 98.8379 99.2455 98.998C99.178 99.0574 99.1105 99.1168 99.0408 99.1783C98.9306 99.2726 98.9306 99.2726 98.8181 99.3681C98.7428 99.4338 98.6663 99.4996 98.5876 99.5675C97.9229 100.136 97.2313 100.664 96.5172 101.174C96.299 101.331 96.0831 101.49 95.8683 101.65C89.3794 106.445 81.6118 109.419 73.4799 110.549C73.3607 110.567 73.2415 110.584 73.1189 110.602C68.8398 111.211 64.2526 111.095 59.9848 110.443C59.9094 110.432 59.8352 110.421 59.7576 110.409C56.972 109.985 54.2629 109.304 51.5931 108.449C51.4682 108.408 51.3445 108.369 51.2163 108.329C51.1028 108.291 50.9892 108.254 50.8711 108.214C50.771 108.181 50.6709 108.149 50.5686 108.115C50.3088 108.002 50.1615 107.889 49.9759 107.686C50.0164 107.623 50.0558 107.559 50.0974 107.493C50.9172 106.185 51.7157 104.868 52.4781 103.528C52.9212 102.751 53.3789 101.982 53.8456 101.217C54.2831 100.5 54.7138 99.7795 55.1423 99.0563C55.9498 97.6947 56.764 96.3363 57.5782 94.9789C57.7603 94.6767 57.9414 94.3745 58.1225 94.0723C58.1821 93.9736 58.2417 93.8739 58.3035 93.7711C58.6926 93.121 59.0806 92.4699 59.4652 91.8167C59.6002 91.5898 59.7363 91.3649 59.8746 91.1401C60.1793 90.6417 60.456 90.1635 60.6618 89.6205C61.0543 88.663 61.0543 88.6629 61.5592 88.3862C62.4971 88.2112 63.4677 88.3045 64.4168 88.3618C66.3567 88.4678 68.1572 87.6195 69.5843 86.4286C70.2546 85.821 70.7798 85.3151 70.8112 84.4021C70.7449 83.8348 70.4806 83.4456 70.0713 83.0373C69.5978 82.7775 69.2357 82.7096 68.6959 82.8284C68.1325 83.0023 67.6714 83.2208 67.1957 83.5548C65.7697 84.541 64.2211 84.6831 62.5151 84.4562C61.2702 84.2696 60.0646 83.961 58.8602 83.6142C58.7241 83.576 58.7241 83.576 58.5847 83.5368C55.3526 82.6078 52.1959 81.0108 49.5958 78.9833C45.5169 75.8178 41.0118 73.2537 35.968 71.7044C35.8184 71.6577 35.8184 71.6577 35.6666 71.6111C33.0553 70.8444 30.3608 70.4266 27.6696 69.9971C26.9904 69.8889 26.3122 69.7797 25.6341 69.6694C23.8291 69.3767 22.0242 69.0862 20.2192 68.7967C19.0271 68.6058 17.8362 68.4139 16.6441 68.2209C15.9716 68.1106 15.298 68.0035 14.6243 67.8964C14.206 67.8296 13.7865 67.7617 13.3682 67.6928C13.1747 67.662 12.9824 67.6313 12.789 67.6005C11.3057 67.3683 9.63676 67.0873 8.64374 65.9144C7.97686 64.9706 7.88914 63.9653 8.10506 62.8656C8.18603 62.5337 8.2715 62.2039 8.36597 61.8752C9.04972 62.0459 9.72898 62.2273 10.406 62.4224C17.8069 64.5528 30.8803 68.2877 38.2801 65.2686C38.3566 65.2389 38.432 65.2082 38.5107 65.1774C40.2594 64.4712 41.4672 63.4266 42.2128 61.7564C42.8842 59.9897 42.8246 58.2633 41.9846 56.5528C41.1456 55.0746 39.8377 54.0598 38.1677 53.4977C37.349 53.2984 36.5112 53.2252 35.6722 53.1435C31.374 52.713 13.9203 50.7342 11.4024 47.9834C12.0872 46.1128 13.1129 44.6834 15.0011 43.7417C16.6835 43.0545 18.548 42.958 20.2822 43.5423C20.6836 43.6515 20.9951 43.6791 21.4112 43.6356C21.8015 43.3642 21.9972 43.0121 22.2266 42.6155C23.1825 41.046 24.4072 39.9782 26.247 39.3939C26.4247 39.3356 26.4247 39.3356 26.6057 39.2762C28.0205 38.9633 29.6388 39.062 30.9703 39.606Z" fill="#4B6BFB"/>
<path d="M76.3373 19.0332C84.6752 20.6856 92.2957 24.3333 98.595 29.7353C98.773 29.8871 98.9509 30.0378 99.1311 30.1874C100.15 31.0365 101.147 31.9311 102.027 32.9107C102.2 33.1028 102.377 33.2917 102.555 33.4796C108.767 40.0596 112.734 48.4417 114.152 57.1136C114.186 57.3184 114.186 57.3184 114.22 57.5275C114.569 59.7658 114.673 61.9817 114.666 64.2444C114.666 64.4514 114.666 64.4514 114.666 64.6636C114.66 66.6652 114.62 68.6308 114.293 70.6122C114.273 70.7374 114.254 70.8637 114.232 70.9932C112.977 78.7704 109.826 86.2026 104.75 92.4707C104.559 92.7126 104.373 92.9546 104.189 93.2019C104.137 93.2709 104.087 93.3399 104.034 93.411C103.935 93.5447 103.836 93.6805 103.737 93.8153C103.619 93.9735 103.494 94.1273 103.368 94.2791C103.294 94.2791 103.22 94.2791 103.143 94.2791C103.124 94.2101 103.105 94.1422 103.084 94.0711C101.806 89.5118 100.505 84.9567 99.1897 80.4069C99.0793 80.0259 98.969 79.6449 98.8586 79.2639C97.6906 75.2246 96.5215 71.1853 95.3513 67.146C95.2849 66.9157 95.2195 66.6865 95.1553 66.4562C95.0619 66.1441 94.9616 65.8374 94.8557 65.5297C94.3568 64.0322 94.3005 62.7257 94.4052 61.1688C94.4187 60.9236 94.4323 60.6785 94.4447 60.4322C94.4807 59.7742 94.5212 59.1162 94.5618 58.4572C94.6046 57.7641 94.6429 57.0711 94.6812 56.3781C94.7465 55.216 94.8141 54.0528 94.8839 52.8907C94.956 51.6988 95.0269 50.507 95.0945 49.3152C95.1013 49.2048 95.1013 49.2048 95.108 49.0923C95.1497 48.36 95.1914 47.6277 95.2331 46.8954C95.2533 46.5378 95.2736 46.1812 95.2939 45.8246C95.3018 45.6855 95.3096 45.5465 95.3187 45.4032C95.366 44.5807 95.4133 43.7582 95.4628 42.9368C95.4932 42.4242 95.5236 41.9116 95.5529 41.399C95.5676 41.1623 95.5811 40.9267 95.5957 40.6911C95.6599 39.6436 95.7207 38.5971 95.7354 37.5486C95.7376 37.4117 95.7399 37.2737 95.7421 37.1336C95.6655 36.2517 95.1486 35.478 94.4627 34.889C93.6236 34.3159 92.6741 34.1132 91.6548 34.2097C91.2201 34.3127 90.8225 34.457 90.4159 34.6343C90.3438 34.665 90.2718 34.6969 90.1985 34.7287C88.7974 35.4992 87.9201 37.7704 87.1474 39.0418C86.2633 40.4979 85.3769 41.954 84.468 43.3963C84.4117 43.4865 84.3554 43.5757 84.2979 43.668C84.2461 43.7497 84.1943 43.8304 84.1414 43.9142C84.0749 44.0204 84.0749 44.0204 84.0062 44.1286C83.8834 44.2921 83.8834 44.2921 83.6582 44.3982C83.3012 43.1936 82.9441 41.988 82.5882 40.7834C82.5612 40.69 82.533 40.5977 82.5049 40.5022C81.8302 38.2204 81.1567 35.9386 80.4888 33.6547C80.4607 33.5581 80.4325 33.4615 80.4032 33.3628C80.1487 32.4894 79.893 31.617 79.6385 30.7446C79.0663 28.7865 78.4942 26.8295 77.9096 24.8746C77.8319 24.6156 77.7542 24.3567 77.6776 24.0966C77.4613 23.375 77.2462 22.6522 77.0277 21.9305C76.9624 21.713 76.8971 21.4943 76.8318 21.2757C76.7529 21.0136 76.6741 20.7514 76.5941 20.4882C76.5603 20.3736 76.5265 20.259 76.4905 20.1401C76.4466 19.9916 76.4466 19.9916 76.4004 19.8398C76.3373 19.5617 76.3249 19.3166 76.3373 19.0332Z" fill="#4B6BFB"/>
<path d="M19.6674 72.541C20.5165 72.6035 21.3406 72.7305 22.1749 72.886C22.3055 72.9093 22.4349 72.9336 22.5689 72.958C22.8436 73.0088 23.1183 73.0606 23.393 73.1114C23.8028 73.1876 24.2126 73.2628 24.6224 73.3369C27.013 73.7782 29.3798 74.3095 31.6785 75.0683C31.8159 75.1127 31.9533 75.1572 32.094 75.2037C33.312 75.6069 34.4983 76.061 35.6732 76.5626C35.7754 76.606 35.8787 76.6494 35.9842 76.6938C37.7267 77.4304 39.3716 78.2866 41.0085 79.2084C41.1242 79.2729 41.2412 79.3385 41.3604 79.4052C42.9723 80.3069 44.5513 81.2012 46.0123 82.3082C47.3665 83.3273 48.8014 84.2343 50.3168 85.0291C50.3963 85.0714 50.4769 85.1137 50.5586 85.1571C52.401 86.1244 54.3489 86.7943 56.3332 87.4632C56.2685 87.8442 56.1629 88.1257 55.954 88.457C55.8973 88.548 55.8405 88.639 55.7826 88.7321C55.7213 88.8305 55.6589 88.929 55.5953 89.0306C54.9585 90.0603 54.3523 91.1017 53.7575 92.1526C53.1309 93.2596 52.4952 94.3613 51.8379 95.4534C51.5326 95.9625 51.2317 96.4726 50.9309 96.9816C50.8129 97.1806 50.6959 97.3785 50.579 97.5764C50.2623 98.1109 49.9467 98.6453 49.6312 99.1798C48.8354 100.525 48.0397 101.87 47.2405 103.214C47.1361 103.39 47.0316 103.566 46.9261 103.742C46.4777 104.496 46.0179 105.242 45.5491 105.984C45.1632 105.869 44.7976 105.754 44.4423 105.572C44.3651 105.533 44.2879 105.493 44.2085 105.452C44.1268 105.409 44.0439 105.367 43.9599 105.322C43.8725 105.277 43.7839 105.23 43.6931 105.182C41.912 104.24 40.2172 103.2 38.6121 102.013C38.4067 101.863 38.1989 101.715 37.9901 101.568C37.3249 101.101 36.6846 100.617 36.0716 100.089C35.8355 99.8867 35.596 99.6899 35.3553 99.4941C34.1021 98.4739 32.917 97.4071 31.8136 96.2472C31.6854 96.1181 31.6854 96.1181 31.5537 95.9858C30.8919 95.3159 30.2902 94.6089 29.6943 93.8882C29.5592 93.7263 29.4218 93.5665 29.2833 93.4067C27.651 91.4985 26.2502 89.3936 25.0026 87.2515C24.9516 87.1648 24.8993 87.078 24.846 86.988C22.4565 82.9548 19.6095 77.26 19.6674 72.541Z" fill="#4B6BFB"/>
<path d="M64.0173 19.0349C64.203 19.036 64.203 19.036 64.392 19.038C64.527 19.0391 64.527 19.0391 64.6643 19.0412C64.6767 19.6889 64.6362 20.3022 64.5361 20.9436C64.5225 21.0345 64.509 21.1265 64.4955 21.2205C64.4517 21.513 64.4066 21.8055 64.3616 22.097C64.3346 22.2819 64.3065 22.4658 64.2784 22.6507C64.2648 22.7447 64.2502 22.8377 64.2356 22.9349C64.1726 23.359 64.1084 23.7832 64.0454 24.2073C64.006 24.4675 63.9666 24.7276 63.9272 24.9888C63.6335 26.9289 63.3668 28.871 63.1328 30.8184C63.1215 30.9176 63.1091 31.0179 63.0968 31.1203C62.9865 32.0438 62.8762 32.9674 62.7682 33.8909C62.7074 34.4039 62.6466 34.9168 62.5847 35.4298C62.5611 35.6231 62.5386 35.8163 62.5161 36.0086C62.4857 36.275 62.4531 36.5414 62.4216 36.8078C62.4126 36.8861 62.4035 36.9645 62.3945 37.0449C62.3473 37.421 62.2933 37.7313 62.0761 38.0552C61.6833 37.8473 61.2895 37.6394 60.8967 37.4304C60.7538 37.3552 60.612 37.28 60.4702 37.2048C59.5621 36.7242 58.6573 36.2405 57.7537 35.7537C57.1708 35.4392 56.5856 35.1268 55.9993 34.8165C55.9048 34.7664 55.8102 34.7162 55.7123 34.664C53.4043 33.449 50.8689 32.9527 48.248 33.565C45.2827 34.3506 43.4034 36.2457 41.9506 38.6664C41.6412 39.1856 41.334 39.7059 41.0279 40.2261C40.5912 40.971 40.1377 41.7086 39.682 42.443C39.6077 42.443 39.5334 42.443 39.4569 42.443C39.305 42.2696 39.1609 42.0899 39.0214 41.9081C36.6694 38.9223 33.622 36.158 29.6665 35.2344C29.8556 34.8165 30.1628 34.4948 30.4779 34.1563C30.5375 34.0925 30.5972 34.0288 30.6579 33.962C31.2994 33.2808 31.9791 32.6383 32.67 32.001C32.8816 31.8056 33.092 31.6092 33.3025 31.4128C34.0823 30.6878 34.8779 30.0192 35.7433 29.384C35.8671 29.2868 35.9909 29.1886 36.1135 29.0883C43.4169 23.1752 54.228 18.9357 64.0173 19.0349Z" fill="#4B6BFB"/>
<path d="M63.6059 44.1152C64.0017 44.1848 64.3093 44.3333 64.6594 44.5135C64.8411 44.6056 64.8411 44.6056 65.025 44.6998C65.1554 44.7673 65.287 44.8349 65.4174 44.9025C65.5534 44.9721 65.6894 45.0417 65.8254 45.1113C66.7963 45.6109 67.7595 46.1217 68.7193 46.6397C69.5085 47.0655 70.3022 47.4853 71.0993 47.9009C71.4928 48.1066 71.8852 48.3134 72.2787 48.5202C72.5986 48.6881 72.9196 48.856 73.2407 49.0229C73.6041 49.2112 73.9664 49.4016 74.3287 49.592C74.4357 49.6473 74.5427 49.7026 74.6531 49.7589C76.2204 50.5871 77.3296 51.751 77.839 53.3654C78.354 55.4138 77.5637 57.0835 76.4389 58.8248C75.2718 60.52 73.8003 61.728 71.6945 62.331C68.9957 62.8633 66.7551 62.1518 64.5111 60.8353C63.7386 60.3706 63.0341 59.8659 62.3797 59.266C62.2638 59.1616 62.2638 59.1616 62.1445 59.0541C60.323 57.2995 59.6118 54.8979 59.6698 52.527C59.7667 50.54 60.7065 48.8621 61.7555 47.1679C62.0821 46.6376 62.4031 46.1053 62.7242 45.573C62.9092 45.2669 63.0943 44.9608 63.2793 44.6547C63.3429 44.5513 63.4053 44.4469 63.4699 44.3394C63.5145 44.2657 63.5602 44.192 63.6059 44.1152ZM72.2519 54.6276C72.0981 54.8047 71.9509 54.9859 71.806 55.1702C71.2141 55.9206 70.5898 56.4795 69.562 56.6525C68.4841 56.7733 67.8041 56.63 66.9011 56.0802C66.3471 55.7527 65.9569 55.5735 65.2948 55.6288C64.7274 55.7578 64.316 56.1058 63.9404 56.502C63.7297 57.0825 63.7185 57.7069 63.9894 58.2679C65.1811 59.4431 66.7339 60.0798 68.4651 60.2201C70.4248 60.2784 72.214 59.7287 73.681 58.5177C74.5148 57.798 75.4869 56.7825 75.5337 55.6831C75.4011 55.0678 75.1781 54.6563 74.6419 54.2499C73.8226 53.7483 72.8751 53.997 72.2519 54.6276Z" fill="#4B6BFB"/>
<path d="M14.6845 52.4766C15.4002 52.5362 16.0827 52.6891 16.7801 52.8555C17.0168 52.9106 17.2535 52.9669 17.4913 53.022C17.6159 53.0512 17.7405 53.0804 17.8686 53.1097C23.1575 54.3422 28.5071 55.3802 33.9149 55.9537C34.0475 55.9672 34.1801 55.9818 34.3162 55.9964C34.5437 56.0189 34.7712 56.0403 34.9987 56.0583C35.8174 56.137 36.6188 56.381 37.2019 56.9793C37.8044 57.7305 38.0811 58.5289 37.9794 59.4904C37.801 60.4159 37.3048 61.0569 36.5216 61.5854C30.8371 64.3754 18.861 60.092 13.0838 58.6616C12.9512 58.2759 12.9901 58.0341 13.1021 57.6461C13.149 57.4786 13.149 57.4786 13.1982 57.3065C13.2325 57.1862 13.2679 57.0659 13.3045 56.9422C13.3571 56.7555 13.3571 56.7555 13.412 56.5666C13.4863 56.3045 13.5629 56.0436 13.6383 55.7816C13.755 55.3802 13.8704 54.9776 13.9859 54.5761C14.0591 54.322 14.1311 54.0678 14.2043 53.8137C14.2397 53.6933 14.274 53.5719 14.3106 53.4471C14.3426 53.3368 14.3746 53.2255 14.4089 53.1108C14.4512 52.9635 14.4512 52.9635 14.4947 52.8128C14.5701 52.589 14.5701 52.589 14.6845 52.4766Z" fill="#4B6BFB"/>
<path d="M66.9782 34.082C67.3706 34.202 67.4513 34.3299 67.6975 34.6289C69.433 36.6532 72.004 37.9732 74.7868 38.3361C75.3104 38.3932 75.8352 38.4276 76.361 38.461C76.5642 38.4748 76.5642 38.4748 76.7717 38.4876C76.8749 38.4945 76.9792 38.5014 77.0857 38.5083C77.3588 39.4299 77.6319 40.3515 77.9051 41.2742C78.0309 41.702 78.1577 42.1299 78.2846 42.5588C78.4083 42.9729 78.5309 43.3879 78.6534 43.802C78.6997 43.9594 78.7459 44.1158 78.7921 44.2722C79.0964 45.2991 79.3889 46.3279 79.6663 47.3607C79.5244 47.3932 79.3825 47.4256 79.2362 47.4591C79.1233 47.343 79.1233 47.343 79.0083 47.225C77.9029 46.1007 76.804 45.3463 75.3653 44.6066C75.2631 44.5535 75.161 44.5014 75.0545 44.4473C74.4878 44.1551 73.9201 43.865 73.3513 43.5748C72.6524 43.2178 71.9556 42.8538 71.261 42.4899C70.6631 42.1761 70.0631 41.8653 69.4631 41.5565C68.4094 41.0145 67.3653 40.4607 66.333 39.8853C66.404 38.6351 66.5577 37.3968 66.7158 36.1535C66.7416 35.9519 66.7674 35.7502 66.7921 35.5486C66.8534 35.0597 66.9158 34.5709 66.9782 34.082Z" fill="#4B6BFB"/>
<path d="M51.3502 37.4376C51.4295 37.4344 51.5087 37.4312 51.5902 37.428C52.8939 37.414 53.9814 38.0697 55.0712 38.6762C55.2093 38.7522 55.3474 38.8283 55.4866 38.9044C55.774 39.0619 56.0603 39.2204 56.3466 39.3779C56.9544 39.7133 57.5666 40.0422 58.1777 40.3722C58.5036 40.5479 58.8296 40.7247 59.1544 40.9004C59.6297 41.1586 60.105 41.4147 60.5803 41.6708C60.8564 41.8197 61.1326 41.9686 61.4087 42.1186C61.6022 42.2236 61.7969 42.3275 61.9915 42.4325C62.1081 42.4958 62.2235 42.5579 62.3435 42.6233C62.4453 42.6779 62.5483 42.7336 62.6535 42.7904C62.8867 42.935 62.8867 42.935 62.9998 43.1493C62.5868 43.2361 62.1884 43.279 61.7674 43.3025C61.6339 43.31 61.5004 43.3165 61.3623 43.324C61.2163 43.3325 61.0714 43.34 60.9209 43.3475C60.7659 43.3561 60.6097 43.3647 60.4547 43.3732C60.0314 43.3957 59.6093 43.4182 59.1872 43.4407C58.8341 43.459 58.4799 43.4782 58.1257 43.4975C57.2905 43.5425 56.4542 43.5865 55.619 43.6315C54.76 43.6765 53.9011 43.7225 53.0421 43.7686C52.3031 43.8093 51.563 43.8479 50.824 43.8875C50.3827 43.9111 49.9424 43.9347 49.5022 43.9582C49.0869 43.9807 48.6704 44.0032 48.2551 44.0247C48.0333 44.0365 47.8103 44.0482 47.5885 44.0611C46.613 44.1115 45.6432 44.1222 44.6665 44.1136C45.2018 43.1493 45.7518 42.1925 46.3142 41.2411C46.3742 41.1393 46.4342 41.0365 46.4953 40.9315C47.4312 39.3586 48.3298 38.1212 50.1959 37.5094C50.5796 37.4483 50.9621 37.443 51.3502 37.4376Z" fill="#4B6BFB"/>
<path d="M68.5029 24.0508C68.6344 24.149 68.766 24.2473 68.8965 24.3455C68.9696 24.3998 69.0426 24.4542 69.1189 24.5106C69.3214 24.6653 69.5187 24.8241 69.7161 24.9851C70.8948 25.8609 72.2907 26.3719 73.7482 26.5119C73.8412 26.5203 73.9341 26.5297 74.0301 26.5391C74.1011 26.5454 74.1721 26.5517 74.2452 26.559C74.5177 27.4933 74.7902 28.4286 75.0617 29.3629C75.188 29.7977 75.3143 30.2314 75.4417 30.6651C75.5639 31.0842 75.685 31.5033 75.8071 31.9213C75.8531 32.0822 75.9 32.2411 75.947 32.401C76.0118 32.6246 76.0765 32.8483 76.1412 33.073C76.1976 33.2632 76.1976 33.2632 76.254 33.4586C76.3333 33.77 76.3333 33.77 76.3333 34.0836C73.6219 34.001 71.2289 32.7563 69.3381 30.8438C69.098 30.5794 68.8996 30.3108 68.7117 30.0077C68.6459 29.9032 68.5801 29.7987 68.5123 29.6911C67.7323 28.3628 68.0163 27.2174 68.2418 25.7626C68.2669 25.5954 68.292 25.4292 68.317 25.2631C68.3786 24.8586 68.4402 24.4542 68.5029 24.0508Z" fill="#4B6BFB"/>
<path d="M69.5865 9C69.9897 9.02741 69.9897 9.02741 70.1734 9.15789C70.3661 9.41118 70.4073 9.61403 70.4664 9.92433C70.4886 10.0417 70.512 10.159 70.5354 10.2807C70.5588 10.4101 70.5833 10.5384 70.6078 10.6721C70.6334 10.807 70.6602 10.943 70.6869 11.0833C70.7582 11.4561 70.8283 11.8289 70.8985 12.2017C70.9709 12.5932 71.0455 12.9835 71.1201 13.3739C71.2449 14.0296 71.3685 14.6852 71.4921 15.3409C71.6336 16.0997 71.7773 16.8574 71.9221 17.6139C72.0758 18.421 72.2284 19.2291 72.3809 20.0361C72.4244 20.2685 72.4689 20.4999 72.5124 20.7323C72.5948 21.1665 72.6761 21.5996 72.7574 22.0339C72.7819 22.1621 72.8064 22.2904 72.832 22.422C72.8643 22.6007 72.8643 22.6007 72.8977 22.7817C72.9178 22.8836 72.9367 22.9867 72.9568 23.092C73.0002 23.4143 73.0047 23.7246 72.9969 24.0492C71.0734 23.5722 69.288 22.8946 68.2265 21.1501C67.928 20.5043 67.9893 19.8782 68.0506 19.1907C68.0595 19.0909 68.0673 18.99 68.0762 18.8859C68.104 18.5547 68.133 18.2236 68.1619 17.8914C68.1809 17.6611 68.2009 17.4297 68.221 17.1984C68.2611 16.7148 68.3034 16.2313 68.3457 15.7477C68.3992 15.1282 68.4515 14.5087 68.5039 13.8892C68.544 13.4122 68.5852 12.9353 68.6264 12.4583C68.6464 12.2302 68.6654 12.0022 68.6843 11.773C68.711 11.4539 68.7389 11.1348 68.7678 10.8158C68.7756 10.7215 68.7834 10.6272 68.7912 10.5307C68.926 9.04825 68.926 9.04825 69.5865 9Z" fill="#4B6BFB"/>
</svg>
